<mxfile host="65bd71144e">
    <diagram id="BWRJ-4vlmhh1wDtf3ROd" name="PÃ¡gina-1">
        <mxGraphModel dx="931" dy="84" grid="1" gridSize="10" guides="1" tooltips="1" connect="1" arrows="1" fold="1" page="1" pageScale="1" pageWidth="827" pageHeight="1169" math="0" shadow="0">
            <root>
                <mxCell id="0"/>
                <mxCell id="1" parent="0"/>
                <mxCell id="2" value="" style="whiteSpace=wrap;html=1;" parent="1" vertex="1">
                    <mxGeometry x="-120" y="60" width="810" height="700" as="geometry"/>
                </mxCell>
                <mxCell id="13" style="edgeStyle=none;html=1;entryX=0.017;entryY=0.367;entryDx=0;entryDy=0;entryPerimeter=0;exitX=1;exitY=0.5;exitDx=0;exitDy=0;" parent="1" source="dNqFxnj2mlaZIWqBr5Ey-71" target="4" edge="1">
                    <mxGeometry relative="1" as="geometry"/>
                </mxCell>
                <mxCell id="14" value="Monitorear" style="edgeLabel;html=1;align=center;verticalAlign=middle;resizable=0;points=[];" parent="13" vertex="1" connectable="0">
                    <mxGeometry x="-0.1978" y="-1" relative="1" as="geometry">
                        <mxPoint as="offset"/>
                    </mxGeometry>
                </mxCell>
                <mxCell id="48" value="1" style="edgeLabel;html=1;align=center;verticalAlign=middle;resizable=0;points=[];" parent="13" vertex="1" connectable="0">
                    <mxGeometry x="-0.824" y="-2" relative="1" as="geometry">
                        <mxPoint as="offset"/>
                    </mxGeometry>
                </mxCell>
                <mxCell id="49" value="M" style="edgeLabel;html=1;align=center;verticalAlign=middle;resizable=0;points=[];" parent="13" vertex="1" connectable="0">
                    <mxGeometry x="0.7252" y="-2" relative="1" as="geometry">
                        <mxPoint as="offset"/>
                    </mxGeometry>
                </mxCell>
                <mxCell id="15" value="" style="edgeStyle=none;html=1;exitX=1;exitY=0.75;exitDx=0;exitDy=0;entryX=0.25;entryY=0;entryDx=0;entryDy=0;" parent="1" source="3" target="7" edge="1">
                    <mxGeometry x="170" y="220" width="60" height="30" as="geometry"/>
                </mxCell>
                <mxCell id="16" value="Supervisar" style="edgeLabel;html=1;align=center;verticalAlign=middle;resizable=0;points=[];" parent="15" vertex="1" connectable="0">
                    <mxGeometry x="-0.1224" y="-1" relative="1" as="geometry">
                        <mxPoint as="offset"/>
                    </mxGeometry>
                </mxCell>
                <mxCell id="46" value="1" style="edgeLabel;html=1;align=center;verticalAlign=middle;resizable=0;points=[];" parent="15" vertex="1" connectable="0">
                    <mxGeometry relative="1" as="geometry">
                        <mxPoint x="-20" y="-85" as="offset"/>
                    </mxGeometry>
                </mxCell>
                <mxCell id="47" value="N" style="edgeLabel;html=1;align=center;verticalAlign=middle;resizable=0;points=[];" parent="15" vertex="1" connectable="0">
                    <mxGeometry relative="1" as="geometry">
                        <mxPoint x="18" y="71" as="offset"/>
                    </mxGeometry>
                </mxCell>
                <mxCell id="31" style="edgeStyle=none;html=1;entryX=0.5;entryY=0;entryDx=0;entryDy=0;exitX=0.097;exitY=0.986;exitDx=0;exitDy=0;exitPerimeter=0;" parent="1" source="3" target="30" edge="1">
                    <mxGeometry relative="1" as="geometry">
                        <mxPoint x="200" y="210" as="sourcePoint"/>
                    </mxGeometry>
                </mxCell>
                <mxCell id="32" value="Ver" style="edgeLabel;html=1;align=center;verticalAlign=middle;resizable=0;points=[];" parent="31" vertex="1" connectable="0">
                    <mxGeometry x="-0.184" y="-1" relative="1" as="geometry">
                        <mxPoint as="offset"/>
                    </mxGeometry>
                </mxCell>
                <mxCell id="44" value="1" style="edgeLabel;html=1;align=center;verticalAlign=middle;resizable=0;points=[];" parent="31" vertex="1" connectable="0">
                    <mxGeometry x="-0.8631" relative="1" as="geometry">
                        <mxPoint as="offset"/>
                    </mxGeometry>
                </mxCell>
                <mxCell id="45" value="1" style="edgeLabel;html=1;align=center;verticalAlign=middle;resizable=0;points=[];" parent="31" vertex="1" connectable="0">
                    <mxGeometry x="0.7385" y="-1" relative="1" as="geometry">
                        <mxPoint as="offset"/>
                    </mxGeometry>
                </mxCell>
                <mxCell id="3" value="Supervisor" style="whiteSpace=wrap;html=1;" parent="1" vertex="1">
                    <mxGeometry x="-40" y="150" width="120" height="60" as="geometry"/>
                </mxCell>
                <mxCell id="4" value="Llamada" style="whiteSpace=wrap;html=1;" parent="1" vertex="1">
                    <mxGeometry x="490" y="150" width="120" height="60" as="geometry"/>
                </mxCell>
                <mxCell id="18" value="Estatus" style="text;strokeColor=none;align=center;fillColor=none;html=1;verticalAlign=middle;whiteSpace=wrap;rounded=0;" parent="1" vertex="1">
                    <mxGeometry x="510" y="270" width="60" height="30" as="geometry"/>
                </mxCell>
                <mxCell id="11" style="edgeStyle=none;html=1;exitX=1;exitY=0;exitDx=0;exitDy=0;entryX=0;entryY=0.75;entryDx=0;entryDy=0;" parent="1" source="7" target="4" edge="1">
                    <mxGeometry relative="1" as="geometry"/>
                </mxCell>
                <mxCell id="12" value="Contestar" style="edgeLabel;html=1;align=center;verticalAlign=middle;resizable=0;points=[];" parent="11" vertex="1" connectable="0">
                    <mxGeometry x="-0.1531" y="-2" relative="1" as="geometry">
                        <mxPoint as="offset"/>
                    </mxGeometry>
                </mxCell>
                <mxCell id="40" value="M" style="edgeLabel;html=1;align=center;verticalAlign=middle;resizable=0;points=[];" parent="11" vertex="1" connectable="0">
                    <mxGeometry x="-0.8939" y="3" relative="1" as="geometry">
                        <mxPoint as="offset"/>
                    </mxGeometry>
                </mxCell>
                <mxCell id="41" value="N" style="edgeLabel;html=1;align=center;verticalAlign=middle;resizable=0;points=[];" parent="11" vertex="1" connectable="0">
                    <mxGeometry x="0.7096" y="-3" relative="1" as="geometry">
                        <mxPoint as="offset"/>
                    </mxGeometry>
                </mxCell>
                <mxCell id="21" style="edgeStyle=none;html=1;exitX=0.75;exitY=0;exitDx=0;exitDy=0;entryX=0.75;entryY=1;entryDx=0;entryDy=0;" parent="1" source="20" target="4" edge="1">
                    <mxGeometry relative="1" as="geometry"/>
                </mxCell>
                <mxCell id="22" value="Realizar" style="edgeLabel;html=1;align=center;verticalAlign=middle;resizable=0;points=[];" parent="21" vertex="1" connectable="0">
                    <mxGeometry x="-0.3158" y="-3" relative="1" as="geometry">
                        <mxPoint as="offset"/>
                    </mxGeometry>
                </mxCell>
                <mxCell id="38" value="M" style="edgeLabel;html=1;align=center;verticalAlign=middle;resizable=0;points=[];" parent="21" vertex="1" connectable="0">
                    <mxGeometry x="-0.8105" y="1" relative="1" as="geometry">
                        <mxPoint as="offset"/>
                    </mxGeometry>
                </mxCell>
                <mxCell id="39" value="N" style="edgeLabel;html=1;align=center;verticalAlign=middle;resizable=0;points=[];" parent="21" vertex="1" connectable="0">
                    <mxGeometry x="0.8211" y="-3" relative="1" as="geometry">
                        <mxPoint as="offset"/>
                    </mxGeometry>
                </mxCell>
                <mxCell id="34" style="edgeStyle=none;html=1;exitX=0.75;exitY=0;exitDx=0;exitDy=0;entryX=0;entryY=0.5;entryDx=0;entryDy=0;" parent="1" source="7" target="4" edge="1">
                    <mxGeometry relative="1" as="geometry"/>
                </mxCell>
                <mxCell id="35" value="Realizar" style="edgeLabel;html=1;align=center;verticalAlign=middle;resizable=0;points=[];" parent="34" vertex="1" connectable="0">
                    <mxGeometry x="-0.392" y="-2" relative="1" as="geometry">
                        <mxPoint as="offset"/>
                    </mxGeometry>
                </mxCell>
                <mxCell id="42" value="M" style="edgeLabel;html=1;align=center;verticalAlign=middle;resizable=0;points=[];" parent="34" vertex="1" connectable="0">
                    <mxGeometry x="-0.8778" y="1" relative="1" as="geometry">
                        <mxPoint as="offset"/>
                    </mxGeometry>
                </mxCell>
                <mxCell id="43" value="M" style="edgeLabel;html=1;align=center;verticalAlign=middle;resizable=0;points=[];" parent="34" vertex="1" connectable="0">
                    <mxGeometry x="0.8389" y="-1" relative="1" as="geometry">
                        <mxPoint as="offset"/>
                    </mxGeometry>
                </mxCell>
                <mxCell id="7" value="Agente" style="whiteSpace=wrap;html=1;" parent="1" vertex="1">
                    <mxGeometry x="250" y="410" width="120" height="60" as="geometry"/>
                </mxCell>
                <mxCell id="20" value="Cliente" style="whiteSpace=wrap;html=1;" parent="1" vertex="1">
                    <mxGeometry x="490" y="490" width="120" height="60" as="geometry"/>
                </mxCell>
                <mxCell id="8" value="Estatus" style="text;strokeColor=none;align=center;fillColor=none;html=1;verticalAlign=middle;whiteSpace=wrap;rounded=0;" parent="1" vertex="1">
                    <mxGeometry x="250" y="470" width="60" height="30" as="geometry"/>
                </mxCell>
                <mxCell id="10" value="Horario" style="text;strokeColor=none;align=center;fillColor=none;html=1;verticalAlign=middle;whiteSpace=wrap;rounded=0;" parent="1" vertex="1">
                    <mxGeometry x="250" y="490" width="60" height="30" as="geometry"/>
                </mxCell>
                <mxCell id="17" value="Tiempo duraciÃ³n" style="text;strokeColor=none;align=center;fillColor=none;html=1;verticalAlign=middle;whiteSpace=wrap;rounded=0;" parent="1" vertex="1">
                    <mxGeometry x="510" y="250" width="60" height="30" as="geometry"/>
                </mxCell>
                <mxCell id="9" value="Tiempo de espera" style="text;strokeColor=none;align=center;fillColor=none;html=1;verticalAlign=middle;whiteSpace=wrap;rounded=0;" parent="1" vertex="1">
                    <mxGeometry x="510" y="220" width="60" height="30" as="geometry"/>
                </mxCell>
                <mxCell id="25" value="Historial" style="text;strokeColor=none;align=center;fillColor=none;html=1;verticalAlign=middle;whiteSpace=wrap;rounded=0;" parent="1" vertex="1">
                    <mxGeometry x="250" y="510" width="60" height="30" as="geometry"/>
                </mxCell>
                <mxCell id="27" value="Problema" style="text;strokeColor=none;align=center;fillColor=none;html=1;verticalAlign=middle;whiteSpace=wrap;rounded=0;" parent="1" vertex="1">
                    <mxGeometry x="520" y="550" width="60" height="30" as="geometry"/>
                </mxCell>
                <mxCell id="28" value="Necesidad" style="text;strokeColor=none;align=center;fillColor=none;html=1;verticalAlign=middle;whiteSpace=wrap;rounded=0;" parent="1" vertex="1">
                    <mxGeometry x="520" y="570" width="60" height="30" as="geometry"/>
                </mxCell>
                <mxCell id="29" value="Estado de Ã¡nimo" style="text;strokeColor=none;align=center;fillColor=none;html=1;verticalAlign=middle;whiteSpace=wrap;rounded=0;" parent="1" vertex="1">
                    <mxGeometry x="500" y="585" width="100" height="30" as="geometry"/>
                </mxCell>
                <mxCell id="30" value="Dashboard General" style="whiteSpace=wrap;html=1;" parent="1" vertex="1">
                    <mxGeometry x="-89" y="410" width="120" height="60" as="geometry"/>
                </mxCell>
                <mxCell id="33" value="Origen&lt;br&gt;Destino" style="text;strokeColor=none;align=center;fillColor=none;html=1;verticalAlign=middle;whiteSpace=wrap;rounded=0;" parent="1" vertex="1">
                    <mxGeometry x="510" y="290" width="60" height="30" as="geometry"/>
                </mxCell>
                <mxCell id="36" value="Conteo de llamadas" style="text;strokeColor=none;align=center;fillColor=none;html=1;verticalAlign=middle;whiteSpace=wrap;rounded=0;" parent="1" vertex="1">
                    <mxGeometry x="-90" y="480" width="60" height="30" as="geometry"/>
                </mxCell>
                <mxCell id="37" value="Grupo" style="text;strokeColor=none;align=center;fillColor=none;html=1;verticalAlign=middle;whiteSpace=wrap;rounded=0;" parent="1" vertex="1">
                    <mxGeometry x="250" y="535" width="60" height="30" as="geometry"/>
                </mxCell>
                <mxCell id="50" value="" style="whiteSpace=wrap;html=1;" parent="1" vertex="1">
                    <mxGeometry x="140" y="780" width="490" height="530" as="geometry"/>
                </mxCell>
                <mxCell id="58" style="edgeStyle=none;html=1;exitX=0.5;exitY=0.5;exitDx=0;exitDy=0;exitPerimeter=0;entryX=0.063;entryY=0.28;entryDx=0;entryDy=0;entryPerimeter=0;" parent="1" source="51" target="56" edge="1">
                    <mxGeometry relative="1" as="geometry"/>
                </mxCell>
                <mxCell id="63" style="edgeStyle=none;html=1;exitX=0.5;exitY=0.5;exitDx=0;exitDy=0;exitPerimeter=0;entryX=0;entryY=0.5;entryDx=0;entryDy=0;" parent="1" source="51" target="60" edge="1">
                    <mxGeometry relative="1" as="geometry"/>
                </mxCell>
                <mxCell id="51" value="Agente" style="shape=umlActor;verticalLabelPosition=bottom;verticalAlign=top;html=1;" parent="1" vertex="1">
                    <mxGeometry x="70" y="880" width="30" height="60" as="geometry"/>
                </mxCell>
                <mxCell id="65" style="edgeStyle=none;html=1;exitX=0.5;exitY=0.5;exitDx=0;exitDy=0;exitPerimeter=0;entryX=0;entryY=0.5;entryDx=0;entryDy=0;" parent="1" source="52" target="61" edge="1">
                    <mxGeometry relative="1" as="geometry"/>
                </mxCell>
                <mxCell id="69" style="edgeStyle=none;html=1;exitX=0.5;exitY=0.5;exitDx=0;exitDy=0;exitPerimeter=0;entryX=0;entryY=0.5;entryDx=0;entryDy=0;" parent="1" source="52" target="68" edge="1">
                    <mxGeometry relative="1" as="geometry"/>
                </mxCell>
                <mxCell id="52" value="Supervisor" style="shape=umlActor;verticalLabelPosition=bottom;verticalAlign=top;html=1;" parent="1" vertex="1">
                    <mxGeometry x="90" y="1030" width="30" height="60" as="geometry"/>
                </mxCell>
                <mxCell id="59" style="edgeStyle=none;html=1;exitX=0.5;exitY=0.5;exitDx=0;exitDy=0;exitPerimeter=0;entryX=0.025;entryY=0.646;entryDx=0;entryDy=0;entryPerimeter=0;" parent="1" source="53" target="56" edge="1">
                    <mxGeometry relative="1" as="geometry"/>
                </mxCell>
                <mxCell id="62" style="edgeStyle=none;html=1;exitX=0.75;exitY=0.1;exitDx=0;exitDy=0;exitPerimeter=0;entryX=0.025;entryY=0.646;entryDx=0;entryDy=0;entryPerimeter=0;" parent="1" source="53" target="60" edge="1">
                    <mxGeometry relative="1" as="geometry"/>
                </mxCell>
                <mxCell id="53" value="Cliente" style="shape=umlActor;verticalLabelPosition=bottom;verticalAlign=top;html=1;" parent="1" vertex="1">
                    <mxGeometry x="90" y="1160" width="30" height="60" as="geometry"/>
                </mxCell>
                <mxCell id="56" value="Realizar llamada" style="ellipse;whiteSpace=wrap;html=1;" parent="1" vertex="1">
                    <mxGeometry x="305" y="1090" width="150" height="50" as="geometry"/>
                </mxCell>
                <mxCell id="60" value="Atender llamada" style="ellipse;whiteSpace=wrap;html=1;" parent="1" vertex="1">
                    <mxGeometry x="320" y="990" width="150" height="50" as="geometry"/>
                </mxCell>
                <mxCell id="61" value="Administrar grupos" style="ellipse;whiteSpace=wrap;html=1;" parent="1" vertex="1">
                    <mxGeometry x="300" y="820" width="160" height="50" as="geometry"/>
                </mxCell>
                <mxCell id="67" value="Plantear una soluciÃ³n" style="ellipse;whiteSpace=wrap;html=1;" parent="1" vertex="1">
                    <mxGeometry x="334" y="910" width="160" height="50" as="geometry"/>
                </mxCell>
                <mxCell id="68" value="Consultar estadÃ­sitcas" style="ellipse;whiteSpace=wrap;html=1;" parent="1" vertex="1">
                    <mxGeometry x="305" y="1180" width="160" height="50" as="geometry"/>
                </mxCell>
                <mxCell id="70" value="" style="endArrow=classic;html=1;exitX=0.5;exitY=0.5;exitDx=0;exitDy=0;exitPerimeter=0;entryX=0.059;entryY=0.28;entryDx=0;entryDy=0;entryPerimeter=0;" parent="1" source="52" target="67" edge="1">
                    <mxGeometry width="50" height="50" relative="1" as="geometry">
                        <mxPoint x="150" y="820" as="sourcePoint"/>
                        <mxPoint x="200" y="770" as="targetPoint"/>
                    </mxGeometry>
                </mxCell>
                <mxCell id="71" value="" style="endArrow=classic;html=1;exitX=0.5;exitY=0.5;exitDx=0;exitDy=0;exitPerimeter=0;entryX=0;entryY=0.5;entryDx=0;entryDy=0;" parent="1" source="51" target="67" edge="1">
                    <mxGeometry width="50" height="50" relative="1" as="geometry">
                        <mxPoint x="180" y="960" as="sourcePoint"/>
                        <mxPoint x="230" y="910" as="targetPoint"/>
                    </mxGeometry>
                </mxCell>
                <mxCell id="dNqFxnj2mlaZIWqBr5Ey-71" value="Cuenta" style="whiteSpace=wrap;html=1;" parent="1" vertex="1">
                    <mxGeometry x="280" y="150" width="120" height="60" as="geometry"/>
                </mxCell>
                <mxCell id="dNqFxnj2mlaZIWqBr5Ey-72" value="Usuario" style="text;strokeColor=none;align=center;fillColor=none;html=1;verticalAlign=middle;whiteSpace=wrap;rounded=0;" parent="1" vertex="1">
                    <mxGeometry x="287" y="210" width="60" height="30" as="geometry"/>
                </mxCell>
                <mxCell id="dNqFxnj2mlaZIWqBr5Ey-73" value="ContraseÃ±a" style="text;strokeColor=none;align=center;fillColor=none;html=1;verticalAlign=middle;whiteSpace=wrap;rounded=0;" parent="1" vertex="1">
                    <mxGeometry x="297" y="230" width="60" height="30" as="geometry"/>
                </mxCell>
                <mxCell id="dNqFxnj2mlaZIWqBr5Ey-75" value="Supervisar" style="edgeLabel;html=1;align=center;verticalAlign=middle;resizable=0;points=[];" parent="1" vertex="1" connectable="0">
                    <mxGeometry x="269.99761121867436" y="250.00045732748032" as="geometry">
                        <mxPoint x="-1" y="8" as="offset"/>
                    </mxGeometry>
                </mxCell>
                <mxCell id="dNqFxnj2mlaZIWqBr5Ey-76" value="" style="edgeStyle=none;html=1;exitX=1;exitY=0.5;exitDx=0;exitDy=0;entryX=0;entryY=0.5;entryDx=0;entryDy=0;" parent="1" source="3" target="dNqFxnj2mlaZIWqBr5Ey-71" edge="1">
                    <mxGeometry x="235" y="190" width="60" height="30" as="geometry">
                        <mxPoint x="215" y="180" as="sourcePoint"/>
                        <mxPoint x="344.9999999999999" y="380" as="targetPoint"/>
                    </mxGeometry>
                </mxCell>
                <mxCell id="dNqFxnj2mlaZIWqBr5Ey-77" value="Tiene" style="edgeLabel;html=1;align=center;verticalAlign=middle;resizable=0;points=[];" parent="dNqFxnj2mlaZIWqBr5Ey-76" vertex="1" connectable="0">
                    <mxGeometry x="-0.1224" y="-1" relative="1" as="geometry">
                        <mxPoint as="offset"/>
                    </mxGeometry>
                </mxCell>
                <mxCell id="dNqFxnj2mlaZIWqBr5Ey-78" value="1" style="edgeLabel;html=1;align=center;verticalAlign=middle;resizable=0;points=[];" parent="dNqFxnj2mlaZIWqBr5Ey-76" vertex="1" connectable="0">
                    <mxGeometry relative="1" as="geometry">
                        <mxPoint x="-20" y="-85" as="offset"/>
                    </mxGeometry>
                </mxCell>
                <mxCell id="dNqFxnj2mlaZIWqBr5Ey-79" value="N" style="edgeLabel;html=1;align=center;verticalAlign=middle;resizable=0;points=[];" parent="dNqFxnj2mlaZIWqBr5Ey-76" vertex="1" connectable="0">
                    <mxGeometry relative="1" as="geometry">
                        <mxPoint x="18" y="71" as="offset"/>
                    </mxGeometry>
                </mxCell>
                <mxCell id="dNqFxnj2mlaZIWqBr5Ey-88" value="Nivel de servicio" style="text;strokeColor=none;align=center;fillColor=none;html=1;verticalAlign=middle;whiteSpace=wrap;rounded=0;" parent="1" vertex="1">
                    <mxGeometry x="-90" y="520" width="60" height="30" as="geometry"/>
                </mxCell>
                <mxCell id="dNqFxnj2mlaZIWqBr5Ey-89" value="Abandono" style="text;strokeColor=none;align=center;fillColor=none;html=1;verticalAlign=middle;whiteSpace=wrap;rounded=0;" parent="1" vertex="1">
                    <mxGeometry x="-89" y="550" width="60" height="30" as="geometry"/>
                </mxCell>
                <mxCell id="dNqFxnj2mlaZIWqBr5Ey-90" value="ResoluciÃ³n al primer contacto" style="text;strokeColor=none;align=center;fillColor=none;html=1;verticalAlign=middle;whiteSpace=wrap;rounded=0;" parent="1" vertex="1">
                    <mxGeometry x="-24" y="640" width="60" height="30" as="geometry"/>
                </mxCell>
                <mxCell id="dNqFxnj2mlaZIWqBr5Ey-91" value="OcupaciÃ³n" style="text;strokeColor=none;align=center;fillColor=none;html=1;verticalAlign=middle;whiteSpace=wrap;rounded=0;" parent="1" vertex="1">
                    <mxGeometry x="-89" y="580" width="60" height="30" as="geometry"/>
                </mxCell>
                <mxCell id="dNqFxnj2mlaZIWqBr5Ey-93" value="Adherencia al horario" style="text;strokeColor=none;align=center;fillColor=none;html=1;verticalAlign=middle;whiteSpace=wrap;rounded=0;" parent="1" vertex="1">
                    <mxGeometry x="-90" y="610" width="60" height="30" as="geometry"/>
                </mxCell>
                <mxCell id="dNqFxnj2mlaZIWqBr5Ey-94" value="Velocidad media de la respuuesta" style="text;strokeColor=none;align=center;fillColor=none;html=1;verticalAlign=middle;whiteSpace=wrap;rounded=0;" parent="1" vertex="1">
                    <mxGeometry x="-90" y="660" width="60" height="30" as="geometry"/>
                </mxCell>
                <mxCell id="dNqFxnj2mlaZIWqBr5Ey-95" value="Tiempo promedio de llamada" style="text;strokeColor=none;align=center;fillColor=none;html=1;verticalAlign=middle;whiteSpace=wrap;rounded=0;" parent="1" vertex="1">
                    <mxGeometry x="-25" y="495" width="60" height="30" as="geometry"/>
                </mxCell>
                <mxCell id="dNqFxnj2mlaZIWqBr5Ey-96" value="Tiempo de espera" style="text;strokeColor=none;align=center;fillColor=none;html=1;verticalAlign=middle;whiteSpace=wrap;rounded=0;" parent="1" vertex="1">
                    <mxGeometry x="-24" y="550" width="60" height="30" as="geometry"/>
                </mxCell>
                <mxCell id="dNqFxnj2mlaZIWqBr5Ey-97" value="Tiempo de espera" style="text;strokeColor=none;align=center;fillColor=none;html=1;verticalAlign=middle;whiteSpace=wrap;rounded=0;" parent="1" vertex="1">
                    <mxGeometry x="-24" y="590" width="60" height="30" as="geometry"/>
                </mxCell>
                <mxCell id="dNqFxnj2mlaZIWqBr5Ey-98" value="Apego al horario" style="text;strokeColor=none;align=center;fillColor=none;html=1;verticalAlign=middle;whiteSpace=wrap;rounded=0;" parent="1" vertex="1">
                    <mxGeometry x="250" y="570" width="60" height="30" as="geometry"/>
                </mxCell>
                <mxCell id="dNqFxnj2mlaZIWqBr5Ey-100" value="Tiempo promedio de duraciÃ³n de llamada" style="text;strokeColor=none;align=center;fillColor=none;html=1;verticalAlign=middle;whiteSpace=wrap;rounded=0;" parent="1" vertex="1">
                    <mxGeometry x="320" y="505" width="60" height="30" as="geometry"/>
                </mxCell>
                <mxCell id="dNqFxnj2mlaZIWqBr5Ey-105" value="EstadÃ­sticas de llamadas activas" style="whiteSpace=wrap;html=1;" vertex="1" parent="1">
                    <mxGeometry x="70" y="410" width="120" height="60" as="geometry"/>
                </mxCell>
                <mxCell id="dNqFxnj2mlaZIWqBr5Ey-106" value="Agentes asignados" style="text;strokeColor=none;align=center;fillColor=none;html=1;verticalAlign=middle;whiteSpace=wrap;rounded=0;" vertex="1" parent="1">
                    <mxGeometry x="67" y="480" width="60" height="30" as="geometry"/>
                </mxCell>
                <mxCell id="dNqFxnj2mlaZIWqBr5Ey-107" value="Lider de la llamada" style="text;strokeColor=none;align=center;fillColor=none;html=1;verticalAlign=middle;whiteSpace=wrap;rounded=0;" vertex="1" parent="1">
                    <mxGeometry x="67" y="520" width="60" height="30" as="geometry"/>
                </mxCell>
                <mxCell id="dNqFxnj2mlaZIWqBr5Ey-108" value="Estatus del agente en ese grupo" style="text;strokeColor=none;align=center;fillColor=none;html=1;verticalAlign=middle;whiteSpace=wrap;rounded=0;" vertex="1" parent="1">
                    <mxGeometry x="67" y="570" width="60" height="30" as="geometry"/>
                </mxCell>
                <mxCell id="dNqFxnj2mlaZIWqBr5Ey-109" value="Indicador de satisfaccion telefÃ³nica" style="text;strokeColor=none;align=center;fillColor=none;html=1;verticalAlign=middle;whiteSpace=wrap;rounded=0;" vertex="1" parent="1">
                    <mxGeometry x="137" y="491" width="60" height="30" as="geometry"/>
                </mxCell>
                <mxCell id="RpX9qei36Tbjpc6iJ4t4-71" value="Soporte en vivo" style="text;strokeColor=none;align=center;fillColor=none;html=1;verticalAlign=middle;whiteSpace=wrap;rounded=0;" vertex="1" parent="1">
                    <mxGeometry x="97" y="627" width="60" height="30" as="geometry"/>
                </mxCell>
                <mxCell id="dNqFxnj2mlaZIWqBr5Ey-110" value="Tiempo de la duraciÃ³n de la llamada" style="text;strokeColor=none;align=center;fillColor=none;html=1;verticalAlign=middle;whiteSpace=wrap;rounded=0;" vertex="1" parent="1">
                    <mxGeometry x="137" y="564" width="60" height="30" as="geometry"/>
                </mxCell>
                <mxCell id="dNqFxnj2mlaZIWqBr5Ey-111" style="edgeStyle=none;html=1;entryX=0.36;entryY=-0.038;entryDx=0;entryDy=0;exitX=0.622;exitY=1.035;exitDx=0;exitDy=0;exitPerimeter=0;entryPerimeter=0;" edge="1" parent="1" source="3" target="dNqFxnj2mlaZIWqBr5Ey-105">
                    <mxGeometry relative="1" as="geometry">
                        <mxPoint x="20.190000000000097" y="220.00000000000009" as="sourcePoint"/>
                        <mxPoint x="19.549999999999997" y="420.84" as="targetPoint"/>
                    </mxGeometry>
                </mxCell>
                <mxCell id="dNqFxnj2mlaZIWqBr5Ey-112" value="Ver" style="edgeLabel;html=1;align=center;verticalAlign=middle;resizable=0;points=[];" connectable="0" vertex="1" parent="dNqFxnj2mlaZIWqBr5Ey-111">
                    <mxGeometry x="-0.184" y="-1" relative="1" as="geometry">
                        <mxPoint as="offset"/>
                    </mxGeometry>
                </mxCell>
                <mxCell id="dNqFxnj2mlaZIWqBr5Ey-113" value="1" style="edgeLabel;html=1;align=center;verticalAlign=middle;resizable=0;points=[];" connectable="0" vertex="1" parent="dNqFxnj2mlaZIWqBr5Ey-111">
                    <mxGeometry x="-0.8631" relative="1" as="geometry">
                        <mxPoint as="offset"/>
                    </mxGeometry>
                </mxCell>
                <mxCell id="dNqFxnj2mlaZIWqBr5Ey-114" value="1" style="edgeLabel;html=1;align=center;verticalAlign=middle;resizable=0;points=[];" connectable="0" vertex="1" parent="dNqFxnj2mlaZIWqBr5Ey-111">
                    <mxGeometry x="0.7385" y="-1" relative="1" as="geometry">
                        <mxPoint as="offset"/>
                    </mxGeometry>
                </mxCell>
                <mxCell id="RpX9qei36Tbjpc6iJ4t4-74" style="edgeStyle=none;html=1;exitX=0.5;exitY=1;exitDx=0;exitDy=0;entryX=0.5;entryY=0.667;entryDx=0;entryDy=0;entryPerimeter=0;" edge="1" parent="1" source="dNqFxnj2mlaZIWqBr5Ey-98" target="dNqFxnj2mlaZIWqBr5Ey-98">
                    <mxGeometry relative="1" as="geometry"/>
                </mxCell>
            </root>
        </mxGraphModel>
    </diagram>
    <diagram id="29QT6ED37W5N16v5jFaK" name="Page-2">
        <mxGraphModel dx="715" dy="577" grid="1" gridSize="10" guides="1" tooltips="1" connect="1" arrows="1" fold="1" page="1" pageScale="1" pageWidth="850" pageHeight="1100" math="0" shadow="0">
            <root>
                <mxCell id="0"/>
                <mxCell id="1" parent="0"/>
                <mxCell id="aFumUh26WIjDeebSd6AK-1" value="" style="whiteSpace=wrap;html=1;" parent="1" vertex="1">
                    <mxGeometry x="70" y="60" width="620" height="610" as="geometry"/>
                </mxCell>
                <mxCell id="aFumUh26WIjDeebSd6AK-2" style="edgeStyle=none;html=1;exitX=1;exitY=0.5;exitDx=0;exitDy=0;entryX=0.017;entryY=0.367;entryDx=0;entryDy=0;entryPerimeter=0;" parent="1" source="aFumUh26WIjDeebSd6AK-14" target="aFumUh26WIjDeebSd6AK-15" edge="1">
                    <mxGeometry relative="1" as="geometry"/>
                </mxCell>
                <mxCell id="aFumUh26WIjDeebSd6AK-3" value="Monitorear" style="edgeLabel;html=1;align=center;verticalAlign=middle;resizable=0;points=[];" parent="aFumUh26WIjDeebSd6AK-2" vertex="1" connectable="0">
                    <mxGeometry x="-0.1978" y="-1" relative="1" as="geometry">
                        <mxPoint as="offset"/>
                    </mxGeometry>
                </mxCell>
                <mxCell id="aFumUh26WIjDeebSd6AK-4" value="1" style="edgeLabel;html=1;align=center;verticalAlign=middle;resizable=0;points=[];" parent="aFumUh26WIjDeebSd6AK-2" vertex="1" connectable="0">
                    <mxGeometry x="-0.824" y="-2" relative="1" as="geometry">
                        <mxPoint as="offset"/>
                    </mxGeometry>
                </mxCell>
                <mxCell id="aFumUh26WIjDeebSd6AK-5" value="M" style="edgeLabel;html=1;align=center;verticalAlign=middle;resizable=0;points=[];" parent="aFumUh26WIjDeebSd6AK-2" vertex="1" connectable="0">
                    <mxGeometry x="0.7252" y="-2" relative="1" as="geometry">
                        <mxPoint as="offset"/>
                    </mxGeometry>
                </mxCell>
                <mxCell id="aFumUh26WIjDeebSd6AK-6" value="" style="edgeStyle=none;html=1;exitX=0.5;exitY=1;exitDx=0;exitDy=0;entryX=0.25;entryY=0;entryDx=0;entryDy=0;" parent="1" source="aFumUh26WIjDeebSd6AK-14" target="aFumUh26WIjDeebSd6AK-29" edge="1">
                    <mxGeometry x="170" y="220" width="60" height="30" as="geometry"/>
                </mxCell>
                <mxCell id="aFumUh26WIjDeebSd6AK-7" value="Supervisar" style="edgeLabel;html=1;align=center;verticalAlign=middle;resizable=0;points=[];" parent="aFumUh26WIjDeebSd6AK-6" vertex="1" connectable="0">
                    <mxGeometry x="-0.1224" y="-1" relative="1" as="geometry">
                        <mxPoint as="offset"/>
                    </mxGeometry>
                </mxCell>
                <mxCell id="aFumUh26WIjDeebSd6AK-8" value="1" style="edgeLabel;html=1;align=center;verticalAlign=middle;resizable=0;points=[];" parent="aFumUh26WIjDeebSd6AK-6" vertex="1" connectable="0">
                    <mxGeometry relative="1" as="geometry">
                        <mxPoint x="-20" y="-85" as="offset"/>
                    </mxGeometry>
                </mxCell>
                <mxCell id="aFumUh26WIjDeebSd6AK-9" value="N" style="edgeLabel;html=1;align=center;verticalAlign=middle;resizable=0;points=[];" parent="aFumUh26WIjDeebSd6AK-6" vertex="1" connectable="0">
                    <mxGeometry relative="1" as="geometry">
                        <mxPoint x="18" y="71" as="offset"/>
                    </mxGeometry>
                </mxCell>
                <mxCell id="aFumUh26WIjDeebSd6AK-10" style="edgeStyle=none;html=1;entryX=0.5;entryY=0;entryDx=0;entryDy=0;exitX=0.145;exitY=1.06;exitDx=0;exitDy=0;exitPerimeter=0;" parent="1" source="aFumUh26WIjDeebSd6AK-14" target="aFumUh26WIjDeebSd6AK-39" edge="1">
                    <mxGeometry relative="1" as="geometry">
                        <mxPoint x="200" y="210" as="sourcePoint"/>
                    </mxGeometry>
                </mxCell>
                <mxCell id="aFumUh26WIjDeebSd6AK-11" value="Ver" style="edgeLabel;html=1;align=center;verticalAlign=middle;resizable=0;points=[];" parent="aFumUh26WIjDeebSd6AK-10" vertex="1" connectable="0">
                    <mxGeometry x="-0.184" y="-1" relative="1" as="geometry">
                        <mxPoint as="offset"/>
                    </mxGeometry>
                </mxCell>
                <mxCell id="aFumUh26WIjDeebSd6AK-12" value="1" style="edgeLabel;html=1;align=center;verticalAlign=middle;resizable=0;points=[];" parent="aFumUh26WIjDeebSd6AK-10" vertex="1" connectable="0">
                    <mxGeometry x="-0.8631" relative="1" as="geometry">
                        <mxPoint as="offset"/>
                    </mxGeometry>
                </mxCell>
                <mxCell id="aFumUh26WIjDeebSd6AK-13" value="1" style="edgeLabel;html=1;align=center;verticalAlign=middle;resizable=0;points=[];" parent="aFumUh26WIjDeebSd6AK-10" vertex="1" connectable="0">
                    <mxGeometry x="0.7385" y="-1" relative="1" as="geometry">
                        <mxPoint as="offset"/>
                    </mxGeometry>
                </mxCell>
                <mxCell id="aFumUh26WIjDeebSd6AK-14" value="Supervisor" style="whiteSpace=wrap;html=1;" parent="1" vertex="1">
                    <mxGeometry x="130" y="90" width="120" height="60" as="geometry"/>
                </mxCell>
                <mxCell id="aFumUh26WIjDeebSd6AK-15" value="Llamada" style="whiteSpace=wrap;html=1;" parent="1" vertex="1">
                    <mxGeometry x="470" y="160" width="120" height="60" as="geometry"/>
                </mxCell>
                <mxCell id="aFumUh26WIjDeebSd6AK-16" value="Estatus" style="text;strokeColor=none;align=center;fillColor=none;html=1;verticalAlign=middle;whiteSpace=wrap;rounded=0;" parent="1" vertex="1">
                    <mxGeometry x="470" y="280" width="60" height="30" as="geometry"/>
                </mxCell>
                <mxCell id="aFumUh26WIjDeebSd6AK-17" style="edgeStyle=none;html=1;exitX=1;exitY=0;exitDx=0;exitDy=0;entryX=0;entryY=0.75;entryDx=0;entryDy=0;" parent="1" source="aFumUh26WIjDeebSd6AK-29" target="aFumUh26WIjDeebSd6AK-15" edge="1">
                    <mxGeometry relative="1" as="geometry"/>
                </mxCell>
                <mxCell id="aFumUh26WIjDeebSd6AK-18" value="Contestar" style="edgeLabel;html=1;align=center;verticalAlign=middle;resizable=0;points=[];" parent="aFumUh26WIjDeebSd6AK-17" vertex="1" connectable="0">
                    <mxGeometry x="-0.1531" y="-2" relative="1" as="geometry">
                        <mxPoint as="offset"/>
                    </mxGeometry>
                </mxCell>
                <mxCell id="aFumUh26WIjDeebSd6AK-19" value="M" style="edgeLabel;html=1;align=center;verticalAlign=middle;resizable=0;points=[];" parent="aFumUh26WIjDeebSd6AK-17" vertex="1" connectable="0">
                    <mxGeometry x="-0.8939" y="3" relative="1" as="geometry">
                        <mxPoint as="offset"/>
                    </mxGeometry>
                </mxCell>
                <mxCell id="aFumUh26WIjDeebSd6AK-20" value="N" style="edgeLabel;html=1;align=center;verticalAlign=middle;resizable=0;points=[];" parent="aFumUh26WIjDeebSd6AK-17" vertex="1" connectable="0">
                    <mxGeometry x="0.7096" y="-3" relative="1" as="geometry">
                        <mxPoint as="offset"/>
                    </mxGeometry>
                </mxCell>
                <mxCell id="aFumUh26WIjDeebSd6AK-21" style="edgeStyle=none;html=1;exitX=0.75;exitY=0;exitDx=0;exitDy=0;entryX=0.75;entryY=1;entryDx=0;entryDy=0;" parent="1" source="aFumUh26WIjDeebSd6AK-30" target="aFumUh26WIjDeebSd6AK-15" edge="1">
                    <mxGeometry relative="1" as="geometry"/>
                </mxCell>
                <mxCell id="aFumUh26WIjDeebSd6AK-22" value="Realizar" style="edgeLabel;html=1;align=center;verticalAlign=middle;resizable=0;points=[];" parent="aFumUh26WIjDeebSd6AK-21" vertex="1" connectable="0">
                    <mxGeometry x="-0.3158" y="-3" relative="1" as="geometry">
                        <mxPoint as="offset"/>
                    </mxGeometry>
                </mxCell>
                <mxCell id="aFumUh26WIjDeebSd6AK-23" value="M" style="edgeLabel;html=1;align=center;verticalAlign=middle;resizable=0;points=[];" parent="aFumUh26WIjDeebSd6AK-21" vertex="1" connectable="0">
                    <mxGeometry x="-0.8105" y="1" relative="1" as="geometry">
                        <mxPoint as="offset"/>
                    </mxGeometry>
                </mxCell>
                <mxCell id="aFumUh26WIjDeebSd6AK-24" value="N" style="edgeLabel;html=1;align=center;verticalAlign=middle;resizable=0;points=[];" parent="aFumUh26WIjDeebSd6AK-21" vertex="1" connectable="0">
                    <mxGeometry x="0.8211" y="-3" relative="1" as="geometry">
                        <mxPoint as="offset"/>
                    </mxGeometry>
                </mxCell>
                <mxCell id="aFumUh26WIjDeebSd6AK-25" style="edgeStyle=none;html=1;exitX=0.75;exitY=0;exitDx=0;exitDy=0;entryX=0;entryY=0.5;entryDx=0;entryDy=0;" parent="1" source="aFumUh26WIjDeebSd6AK-29" target="aFumUh26WIjDeebSd6AK-15" edge="1">
                    <mxGeometry relative="1" as="geometry"/>
                </mxCell>
                <mxCell id="aFumUh26WIjDeebSd6AK-26" value="Realizar" style="edgeLabel;html=1;align=center;verticalAlign=middle;resizable=0;points=[];" parent="aFumUh26WIjDeebSd6AK-25" vertex="1" connectable="0">
                    <mxGeometry x="-0.392" y="-2" relative="1" as="geometry">
                        <mxPoint as="offset"/>
                    </mxGeometry>
                </mxCell>
                <mxCell id="aFumUh26WIjDeebSd6AK-27" value="M" style="edgeLabel;html=1;align=center;verticalAlign=middle;resizable=0;points=[];" parent="aFumUh26WIjDeebSd6AK-25" vertex="1" connectable="0">
                    <mxGeometry x="-0.8778" y="1" relative="1" as="geometry">
                        <mxPoint as="offset"/>
                    </mxGeometry>
                </mxCell>
                <mxCell id="aFumUh26WIjDeebSd6AK-28" value="M" style="edgeLabel;html=1;align=center;verticalAlign=middle;resizable=0;points=[];" parent="aFumUh26WIjDeebSd6AK-25" vertex="1" connectable="0">
                    <mxGeometry x="0.8389" y="-1" relative="1" as="geometry">
                        <mxPoint as="offset"/>
                    </mxGeometry>
                </mxCell>
                <mxCell id="aFumUh26WIjDeebSd6AK-29" value="Agente" style="whiteSpace=wrap;html=1;" parent="1" vertex="1">
                    <mxGeometry x="250" y="410" width="120" height="60" as="geometry"/>
                </mxCell>
                <mxCell id="aFumUh26WIjDeebSd6AK-30" value="Cliente" style="whiteSpace=wrap;html=1;" parent="1" vertex="1">
                    <mxGeometry x="470" y="410" width="120" height="60" as="geometry"/>
                </mxCell>
                <mxCell id="aFumUh26WIjDeebSd6AK-31" value="Estatus" style="text;strokeColor=none;align=center;fillColor=none;html=1;verticalAlign=middle;whiteSpace=wrap;rounded=0;" parent="1" vertex="1">
                    <mxGeometry x="250" y="470" width="60" height="30" as="geometry"/>
                </mxCell>
                <mxCell id="aFumUh26WIjDeebSd6AK-32" value="Horario" style="text;strokeColor=none;align=center;fillColor=none;html=1;verticalAlign=middle;whiteSpace=wrap;rounded=0;" parent="1" vertex="1">
                    <mxGeometry x="250" y="490" width="60" height="30" as="geometry"/>
                </mxCell>
                <mxCell id="aFumUh26WIjDeebSd6AK-33" value="Tiempo duraciÃ³n" style="text;strokeColor=none;align=center;fillColor=none;html=1;verticalAlign=middle;whiteSpace=wrap;rounded=0;" parent="1" vertex="1">
                    <mxGeometry x="470" y="250" width="60" height="30" as="geometry"/>
                </mxCell>
                <mxCell id="aFumUh26WIjDeebSd6AK-34" value="Tiempo de espera" style="text;strokeColor=none;align=center;fillColor=none;html=1;verticalAlign=middle;whiteSpace=wrap;rounded=0;" parent="1" vertex="1">
                    <mxGeometry x="470" y="220" width="60" height="30" as="geometry"/>
                </mxCell>
                <mxCell id="aFumUh26WIjDeebSd6AK-35" value="Historial" style="text;strokeColor=none;align=center;fillColor=none;html=1;verticalAlign=middle;whiteSpace=wrap;rounded=0;" parent="1" vertex="1">
                    <mxGeometry x="250" y="510" width="60" height="30" as="geometry"/>
                </mxCell>
                <mxCell id="aFumUh26WIjDeebSd6AK-36" value="Problema" style="text;strokeColor=none;align=center;fillColor=none;html=1;verticalAlign=middle;whiteSpace=wrap;rounded=0;" parent="1" vertex="1">
                    <mxGeometry x="470" y="470" width="60" height="30" as="geometry"/>
                </mxCell>
                <mxCell id="aFumUh26WIjDeebSd6AK-37" value="Necesidad" style="text;strokeColor=none;align=center;fillColor=none;html=1;verticalAlign=middle;whiteSpace=wrap;rounded=0;" parent="1" vertex="1">
                    <mxGeometry x="470" y="490" width="60" height="30" as="geometry"/>
                </mxCell>
                <mxCell id="aFumUh26WIjDeebSd6AK-38" value="Estado de Ã¡nimo" style="text;strokeColor=none;align=center;fillColor=none;html=1;verticalAlign=middle;whiteSpace=wrap;rounded=0;" parent="1" vertex="1">
                    <mxGeometry x="470" y="510" width="100" height="30" as="geometry"/>
                </mxCell>
                <mxCell id="aFumUh26WIjDeebSd6AK-39" value="Dashboard" style="whiteSpace=wrap;html=1;" parent="1" vertex="1">
                    <mxGeometry x="120" y="370" width="120" height="60" as="geometry"/>
                </mxCell>
                <mxCell id="aFumUh26WIjDeebSd6AK-40" value="Origen&lt;br&gt;Destino" style="text;strokeColor=none;align=center;fillColor=none;html=1;verticalAlign=middle;whiteSpace=wrap;rounded=0;" parent="1" vertex="1">
                    <mxGeometry x="470" y="300" width="60" height="30" as="geometry"/>
                </mxCell>
                <mxCell id="aFumUh26WIjDeebSd6AK-41" value="Conteo de llamadas" style="text;strokeColor=none;align=center;fillColor=none;html=1;verticalAlign=middle;whiteSpace=wrap;rounded=0;" parent="1" vertex="1">
                    <mxGeometry x="120" y="430" width="60" height="30" as="geometry"/>
                </mxCell>
                <mxCell id="aFumUh26WIjDeebSd6AK-42" value="Grupo" style="text;strokeColor=none;align=center;fillColor=none;html=1;verticalAlign=middle;whiteSpace=wrap;rounded=0;" parent="1" vertex="1">
                    <mxGeometry x="250" y="540" width="60" height="30" as="geometry"/>
                </mxCell>
            </root>
        </mxGraphModel>
    </diagram>
</mxfile>